<svg width="600" height="600" viewBox="0 0 600 600" fill="none" xmlns="http://www.w3.org/2000/svg">
<rect width="600" height="600" fill="white"/>
<path d="M497 437V162H537C545.284 162 552 168.716 552 177V422C552 430.285 545.284 437 537 437H497Z" fill="#010101"/>
<path d="M449.249 232.025C452.077 237.061 454.621 242.331 456.85 247.823L457.507 249.473C484.858 319.423 450.946 398.563 381.145 426.881L379.495 427.538C321.22 450.324 256.568 430.589 220.236 383.007H332.984V381.91C342.175 381.518 351.457 379.571 360.47 375.915C402.672 358.794 423.005 310.702 405.884 268.499C399.691 253.233 389.445 240.83 376.892 232.025H449.249ZM279.443 171.462C338.139 148.511 403.303 168.698 439.483 217.027H330.841C320.068 216.843 309.082 218.779 298.469 223.085C256.266 240.206 235.933 288.297 253.054 330.5C259.493 346.373 270.315 359.152 283.556 368.009H210.276C207.212 362.661 204.469 357.046 202.088 351.177C173.548 280.826 207.442 200.659 277.793 172.119L279.443 171.462Z" fill="#010101"/>
<path d="M547.085 413.939L497.238 437.183L465.334 368.765C481.037 337.924 486.228 301.906 478.399 266.644L547.085 413.939ZM450.312 233.913C452.729 238.377 454.926 243.02 456.879 247.834C470.834 282.235 469.86 318.981 457 350.893L411 252.245L450.312 233.913Z" fill="#010101"/>
<path d="M338 162H537C545.284 162 552 168.716 552 177V217H338V162Z" fill="#010101"/>
<path d="M51 397.003C51 388.719 57.7157 382.003 66 382.003H338V437.003H66C57.7157 437.003 51 430.287 51 422.003V397.003Z" fill="#010101"/>
<path d="M161 162.002C169.284 162.002 176 168.718 176 177.002V437.002H121V177.002C121 168.718 127.716 162.002 136 162.002H161Z" fill="#010101"/>
<path d="M47 177C47 168.716 53.7157 162 62 162H87C95.2843 162 102 168.716 102 177V307C102 315.284 95.2843 322 87 322H62C53.7157 322 47 315.284 47 307V177Z" fill="black"/>
<path d="M176 303.502C176 320.609 169.204 337.015 157.108 349.111C145.012 361.207 128.606 368.002 111.5 368.002C94.3935 368.002 77.9877 361.207 65.8916 349.111C53.7955 337.015 47 320.609 47 303.502L101.825 303.502C101.825 306.068 102.844 308.529 104.659 310.344C106.473 312.158 108.934 313.177 111.5 313.177C114.066 313.177 116.527 312.158 118.341 310.344C120.156 308.529 121.175 306.068 121.175 303.502H176Z" fill="black"/>
</svg>
