<svg width="505" height="276" viewBox="0 0 505 276" fill="none" xmlns="http://www.w3.org/2000/svg">
<path d="M450 275V0.000488281H490C498.284 0.000488281 505 6.71622 505 15.0005V260C505 268.285 498.284 275 490 275H450Z" fill="#010101"/>
<path d="M402.249 70.0252C405.077 75.0609 407.621 80.3306 409.85 85.8231L410.507 87.4735C437.858 157.423 403.946 236.563 334.145 264.881L332.495 265.538C274.22 288.324 209.568 268.589 173.236 221.007H285.984V219.91C295.175 219.518 304.457 217.571 313.47 213.915C355.672 196.794 376.005 148.702 358.884 106.499C352.691 91.2332 342.445 78.8302 329.892 70.0252H402.249ZM232.443 9.46175C291.139 -13.4887 356.303 6.69782 392.483 55.0272H283.841C273.068 54.8431 262.082 56.779 251.469 61.0848C209.266 78.2058 188.933 126.297 206.054 168.5C212.493 184.373 223.315 197.152 236.556 206.009H163.276C160.212 200.661 157.469 195.046 155.088 189.177C126.548 118.826 160.442 38.6591 230.793 10.119L232.443 9.46175Z" fill="#010101"/>
<path d="M500.085 251.939L450.238 275.183L418.334 206.765C434.037 175.924 439.228 139.906 431.399 104.644L500.085 251.939ZM403.312 71.9126C405.729 76.3774 407.926 81.0199 409.879 85.8345C423.834 120.235 422.86 156.981 410 188.893L364 90.2446L403.312 71.9126Z" fill="#010101"/>
<path d="M291 0.000488281H490C498.284 0.000488281 505 6.71622 505 15.0005V55.0005H291V0.000488281Z" fill="#010101"/>
<path d="M4 235.003C4 226.719 10.7157 220.003 19 220.003H291V275.003H19C10.7157 275.003 4 268.287 4 260.003V235.003Z" fill="#010101"/>
<path d="M114 0.00244141C122.284 0.00244141 129 6.71817 129 15.0024V275.002H74V15.0024C74 6.71817 80.7157 0.00244165 89 0.00244141H114Z" fill="#010101"/>
<path d="M0 15C0 6.71573 6.71573 0 15 0H40C48.2843 0 55 6.71573 55 15V145C55 153.284 48.2843 160 40 160H15C6.71573 160 0 153.284 0 145V15Z" fill="black"/>
<path d="M129 141.502C129 158.609 122.204 175.015 110.108 187.111C98.0123 199.207 81.6065 206.002 64.5 206.002C47.3935 206.002 30.9877 199.207 18.8916 187.111C6.79552 175.015 2.583e-06 158.609 0 141.502L54.825 141.502C54.825 144.068 55.8443 146.529 57.6587 148.344C59.4732 150.158 61.934 151.177 64.5 151.177C67.066 151.177 69.5268 150.158 71.3413 148.344C73.1557 146.529 74.175 144.068 74.175 141.502H129Z" fill="black"/>
</svg>
